/* XPM */
static char *_9b116c06fd84ffce5c2abc4d7f733ef[] = {
/* columns rows colors chars-per-pixel */
"16 16 116 2 ",
"   c #A18331",
".  c #A68835",
"X  c #AA8C37",
"o  c #AA8D39",
"O  c #AB8E39",
"+  c #AE903A",
"@  c #AD913D",
"#  c #AE923D",
"$  c #B39339",
"%  c #B59338",
"&  c #B0933D",
"*  c #B0943E",
"=  c #B4963D",
"-  c #B6963C",
";  c #B99A3E",
":  c #948348",
">  c #9E8C4D",
",  c #AD9443",
"<  c #B29641",
"1  c #B49840",
"2  c #B69B44",
"3  c #B79C44",
"4  c #B69C46",
"5  c #B79C47",
"6  c #BC9E42",
"7  c #BC9F42",
"8  c #B89E47",
"9  c #BEA246",
"0  c #BFA246",
"q  c #BBA049",
"w  c #BBA14A",
"e  c #BBA14C",
"r  c #BBA24D",
"t  c #BEA44E",
"y  c #BFA651",
"u  c #C2A54A",
"i  c #C3A64B",
"p  c #C5A94E",
"a  c #C7AB4F",
"s  c #C1A751",
"d  c #C2A952",
"f  c #C1A955",
"g  c #C3AB57",
"h  c #C3AC57",
"j  c #C7AE57",
"k  c #C8AD52",
"l  c #CAAE54",
"z  c #C3AC58",
"x  c #C4AC59",
"c  c #C7AE58",
"v  c #C5AE5A",
"b  c #CBB056",
"n  c #CBB158",
"m  c #C8B05A",
"M  c #C8B15C",
"N  c #C8B15D",
"B  c #C8B25D",
"V  c #C8B25E",
"C  c #CBB45D",
"Z  c #CFB75E",
"A  c #D0B55A",
"S  c #CAB460",
"D  c #CBB662",
"F  c #CCB763",
"G  c #CEB862",
"H  c #CDB964",
"J  c #CFBB67",
"K  c #CFBB68",
"L  c #D1B960",
"P  c #D2BC64",
"I  c #D0BD69",
"U  c #D2BF6B",
"Y  c #D6C068",
"T  c #D2C06C",
"R  c #D2C06D",
"E  c #D5C36F",
"W  c #D9C56D",
"Q  c #DBC56C",
"!  c #DCC76D",
"~  c #D6C570",
"^  c #D7C572",
"/  c #D7C773",
"(  c #DFCB72",
")  c #DBCB76",
"_  c #DFCC74",
"`  c #DBCB78",
"'  c #DCCD78",
"]  c #DDCE7A",
"[  c #DCCF7C",
"{  c #DFD07C",
"}  c #DFD17E",
"|  c #E0CA6E",
" . c #E3CF77",
".. c #E3D179",
"X. c #E6D37B",
"o. c #E2D47F",
"O. c #E7D77E",
"+. c #E9D97F",
"@. c #E3D580",
"#. c #E3D783",
"$. c #E5D883",
"%. c #E7DC87",
"&. c #EBDD84",
"*. c #EDDE84",
"=. c #E7DD89",
"-. c #EAE08A",
";. c #EBE08A",
":. c #EFE289",
">. c #EDE58F",
",. c #F0E38A",
"<. c #F0E58C",
"1. c #EEE590",
"2. c #F1E993",
"3. c #F0EB95",
"4. c #F8EE94",
"5. c None",
/* pixels */
"5.5.5.5.5.5.5.5.5.5.5.5.5.5.5.5.",
"5.5.5.5.S g s e 4 < # o .   5.5.",
"5.5.~ L A l a i 0 6 ; - $ % 5.5.",
"5.5.| m c n s t w 8 2 * o X 5.5.",
"5.) W G v > 5.5.5.5.5., - + 5.5.",
"5.' W Y : 5.5.5.5.5.5.# 9 # 5.5.",
"5.{ _ J 5.5.5.5.5.5.5.5 0 = 5.5.",
"5.o...I 5.5.5.5.5.5.5.e i 4 5.5.",
"5.$.O.R 5.5.5.5.5.5.5.f p w 5.5.",
"5.%.*.E 5.5.5.5.5.5.5.M k t 5.5.",
"5.-.,./ 5.5.5.5.5.5.5.F b d 5.5.",
"5.>.>.@.{ ' ^ R J M z M j j 5.5.",
"5.2.4.-.:.*.$.X. ._ ! P C Z 5.5.",
"5.3.1.=.#.{ _ ~ R K F M v f 5.5.",
"5.5.5.5.5.5.5.5.5.5.5.5.5.5.5.5.",
"5.5.5.5.5.5.5.5.5.5.5.5.5.5.5.5."
};
