/* XPM */
static char *_3320781d6584c13e873bc7dafdf11bb[] = {
/* columns rows colors chars-per-pixel */
"32 32 94 2 ",
"   c #92772F",
".  c #987B2E",
"X  c #8F7631",
"o  c #87753D",
"O  c #937A34",
"+  c #957E39",
"@  c #99823D",
"#  c #A58633",
"$  c #A78834",
"%  c #AA8B36",
"&  c #AC8E39",
"*  c #B08F35",
"=  c #AE913B",
"-  c #B19036",
";  c #B2953D",
":  c #B99A3E",
">  c #9D8641",
",  c #9F8944",
"<  c #9F8B49",
"1  c #A18C46",
"2  c #A48F4A",
"3  c #AE9241",
"4  c #A6924E",
"5  c #B39740",
"6  c #B59A43",
"7  c #BA9D44",
"8  c #B69D4A",
"9  c #B99E48",
"0  c #A79550",
"q  c #AC9A56",
"w  c #AD9D5A",
"e  c #BEA245",
"r  c #BCA24C",
"t  c #B5A055",
"y  c #BFA651",
"u  c #B4A35B",
"i  c #B3A561",
"p  c #B6AA65",
"a  c #B8AC67",
"s  c #B7AC68",
"d  c #BAAD69",
"f  c #BBB16D",
"g  c #C2A446",
"h  c #C1A64C",
"j  c #C6AA4D",
"k  c #C8AC4E",
"l  c #C1A751",
"z  c #C4AB55",
"x  c #CAAF52",
"c  c #C4AD59",
"v  c #CEB255",
"b  c #C6B05D",
"n  c #CAB25C",
"m  c #D1B659",
"M  c #D2B95E",
"N  c #CCB662",
"B  c #CEB964",
"V  c #D2BC65",
"C  c #D2BE69",
"Z  c #C1B772",
"A  c #D7C064",
"S  c #D9C165",
"D  c #D5C26D",
"F  c #DBC46A",
"G  c #DEC86B",
"H  c #D5C471",
"J  c #D8C672",
"K  c #DCCA75",
"L  c #DECE79",
"P  c #DED17D",
"I  c #E0C96C",
"U  c #E2CE75",
"Y  c #E5D174",
"T  c #E3D27C",
"R  c #E8D67C",
"E  c #DAD080",
"W  c #E4D680",
"Q  c #E6DA84",
"!  c #EADC84",
"~  c #E7DD88",
"^  c #E9DE88",
"/  c #EFE086",
"(  c #ECE28C",
")  c #F2E68D",
"_  c #F5EA8F",
"`  c #EEE691",
"'  c #EFE892",
"]  c #F2EB94",
"[  c #F9EF95",
"{  c #FBF297",
"}  c #F6F098",
"|  c #FCF499",
" . c #FFFB9E",
".. c None",
/* pixels */
"................................................................",
"................................................................",
"................................................................",
"..............H B n c c l l l e r 7 5 5 ; = = & % $ # * . ......",
"..........P D M x l r r r 9 8 6 5 ; ; ; = = & & $ $ $ -   ......",
"........T G x c z z l l r r 9 9 7 6 5 ; ; = = & & % $ - X ......",
"........Y n n b c z l l r r 8 9 8 5 5 ; = = = = & & $ - X ......",
"......P V B n n n c c m m m m v v x x k k k e = & & * ; O ......",
"......U V V N N b M b t w w w u i i p a d f u ; = = * ; O ......",
"......T C V B N V t ..........................: ; = = : + ......",
"....~ R C C V C c ............................7 5 = = 7 @ ......",
"....Q Y D C C G 1 ............................e 5 5 = 7 @ ......",
"....~ T D D C C o ............................h 6 6 ; e > ......",
"....~ R J J D V ..............................h 6 6 ; g 1 ......",
"....( R K J J B ..............................z 8 5 6 g 1 ......",
"....~ ! K K K V ..............................k r 7 5 j 2 ......",
"....( ! L K K B ..............................x r r 6 k 4 ......",
"....( ! P L P C ..............................v r r 9 k 0 ......",
"....( ( T T T C ..............................m r r r x q ......",
"....( ) W T R C ..............................m y y r v q ......",
"....` ) Q W W C ..............................V z l h v w ......",
"....` _ Q ! Q D ..............................S z l l m u ......",
"....` [ ~ Q Q L H E P K H C B N b c y r 8 3 b N z z l M i ......",
"....' [ ( ~ Q Q ( / ! ! R T T U U I G F D S M n n c z V s ......",
"....] | ( ( ~ ! Q W T P L L K J J D D C V B V n n b z V d ......",
"....] | ` ( ( ^ Q W W T L L K K J D D C C V B B n n c S f ......",
"....]  .] ' ` ( ( ( ! Q W T T L L K K H D D V V V N n G Z ......",
"....] } ` ` ( ^ Q W T L L K H H C C B N N n b c z l y v d ......",
"................................................................",
"................................................................",
"................................................................",
"................................................................"
};
