/* XPM */
static char *c576e0aaa7cd4949d287c2850a369edf[] = {
/* columns rows colors chars-per-pixel */
"64 64 94 2 ",
"   c #6A4F17",
".  c #7A6226",
"X  c #846B2C",
"o  c #88702F",
"O  c #8B7431",
"+  c #8F7936",
"@  c #9A7E33",
"#  c #927C3A",
"$  c #877947",
"%  c #99823E",
"&  c #A48632",
"*  c #A78935",
"=  c #A98B36",
"-  c #A48838",
";  c #AB8E39",
":  c #AE913B",
">  c #B09037",
",  c #B1953E",
"<  c #B7983D",
"1  c #B99A3F",
"2  c #8D814F",
"3  c #9E8842",
"4  c #A18C48",
"5  c #AA9347",
"6  c #B29741",
"7  c #B59A43",
"8  c #B99D46",
"9  c #B59D4B",
"0  c #B99F49",
"q  c #AF9E54",
"w  c #A99958",
"e  c #BEA145",
"r  c #BDA24C",
"t  c #BCA452",
"y  c #BFA856",
"u  c #C1A347",
"i  c #C1A64C",
"p  c #C5A94E",
"a  c #C9AC4F",
"s  c #C0A751",
"d  c #C3AA54",
"f  c #C9AE54",
"g  c #C6AE59",
"h  c #C8AF59",
"j  c #CCB255",
"k  c #C7B15E",
"l  c #CAB35C",
"z  c #CFB85F",
"x  c #D0B457",
"c  c #D1B659",
"v  c #D1B95E",
"b  c #CCB661",
"n  c #CEB964",
"m  c #CEBC6A",
"M  c #D2BC65",
"N  c #D8BF63",
"B  c #D2BE69",
"V  c #C2BB77",
"C  c #D7C066",
"Z  c #D9C166",
"A  c #D5C26D",
"S  c #D9C46C",
"D  c #DDC86D",
"F  c #D7C571",
"G  c #D8C672",
"H  c #DBCA75",
"J  c #DECE79",
"K  c #DFD07B",
"L  c #E0CD74",
"P  c #E2CF78",
"I  c #E1D27D",
"U  c #EAD87C",
"Y  c #BFBD81",
"T  c #DFD280",
"R  c #E3D681",
"E  c #E6DA84",
"W  c #E8DC86",
"Q  c #E6DD8B",
"!  c #EADE88",
"~  c #ECE28C",
"^  c #F1E286",
"/  c #F1E68C",
"(  c #F5E98F",
")  c #ECE692",
"_  c #EEE996",
"`  c #F0E790",
"'  c #F3EB93",
"]  c #F9EE91",
"[  c #FDF295",
"{  c #F6F098",
"}  c #FFF699",
"|  c #FFFB9D",
" . c #FFFFA3",
".. c None",
/* pixels */
"................................................................................................................................",
"................................................................................................................................",
"................................................................................................................................",
"................................................................................................................................",
"................................................................................................................................",
"............................................F m n m n n b k g g d y t r t 9 9 9 5 6 ............................................",
"................................H H F B B N N v M v c c l x j j f f a p i i u u e e 8 1 1 1 < < < < > > > > = * = ..............",
"..........................K J L Z f s r r 0 r r 7 8 7 7 7 7 6 6 , , , , , : : : ; > > ; ; ; = = * * & & & & & & & ..............",
"......................R E D g s t d s r s r r r r r r 0 8 0 0 7 7 7 < 6 , , , , : : : : ; ; ; = = * * * * & & & & ..............",
"....................W U h d d g d d d d d s r r r 0 r 0 0 0 7 7 7 7 6 6 , 7 , , , : : : ; ; ; ; ; * * * * & & & & ..............",
"..................! H g h h g g d d d y s r s r r r 9 r 0 0 0 7 8 6 7 7 , , , , , , : : : ; ; ; ; = * * * & & & * ..............",
"................~ P g l h f g g g d d d d s d r r r r r 0 0 0 8 8 8 7 7 7 7 , , , , : : : : ; ; ; = > * * * & * * ..............",
"..............Q ^ h b l l l h h g d g d a s s t r r r r r e 0 8 8 8 7 7 7 6 , 7 , , , , , : : ; ; ; = = * * * * * ..............",
"............../ n n b l l l k h h h d d d d d s y r t r r r r 0 0 0 8 7 8 7 7 , , , , , , : : : : ; ; ; ; * * * ; ..............",
"............~ ^ b n b b l b l h h h h d d d d s d t s t r r r r 0 8 8 8 7 7 7 6 7 , , , : , , : ; : ; ; ; * ; * ; ..............",
"............~ A n n n n b l b l k h h g g d d s d d a p d r r r r r r 0 0 8 8 8 7 , 8 , , , , : : ; ; ; ; ; * * : ..............",
"............/ n M M n b b b l b l h h h g l N M M B m m B A F F F G H H H K K K K I I I E n ; , 6 : : ; ; ; = * : ..............",
"..........) ^ n B m M n n b b b l l h z M k w $ ..........................................% < , : : : : > ; ; ; , ..............",
"..........~ P B B M m M n n b b b l M g $ ................................................@ 1 , , , : : ; : ; ; , ..............",
"..........) D A B B M M M n b b b M t ....................................................& 1 7 , : , : : : : ; 6 ..............",
"..........) S A A B B B M M n n M g ......................................................- 8 , 6 , , : , ; : : 6 ..............",
"..........) A A A B B B m m M n M 4 ......................................................- e , 6 , , , : , : : 7 ..............",
"........../ A A A B A B M B M M g ........................................................: e 6 6 , 6 , , : : : 7 ..............",
"........../ A F F A A B B B B B r ........................................................6 e 7 7 , < 6 , , , : 0 ..............",
"..........( A G F F A B B B B N 5 ........................................................6 e 8 8 , 7 , , , , , 0 ..............",
"..........( G G F F F F A B A Z 3 ........................................................7 u 7 7 7 7 , 6 , , , r ..............",
"..........] F H G F F F B A F N % ........................................................9 s 8 8 7 7 7 6 , 6 , r ..............",
"..........] G H G G F F S S F v # ........................................................9 s 8 8 7 7 7 7 7 , < r ..............",
"..........] G H G G G G F A G N # ........................................................r y 8 8 7 7 7 7 7 6 6 t ..............",
"..........] H H L H G G F F G v + ........................................................t p 8 0 8 9 0 7 7 7 < d ..............",
"..........] H J H H H G G F G N + ........................................................d a r r 8 8 9 7 7 7 7 d ..............",
"..........[ J J H J H H H F H M O ........................................................k d 0 r 8 8 8 8 7 7 7 g ..............",
"..........[ J K J H J H H G H v O ........................................................k f 0 r r 0 0 8 8 7 8 g ..............",
"........_ [ J I K J J H H G J v O ........................................................b f r r 0 r 0 0 8 8 7 k ..............",
"........_ [ I I I K J J H H J M o ........................................................m h i r r r 0 0 8 8 8 l ..............",
"........_ } I I I K P J J H P v o ........................................................m h t r r r r r r 8 8 l ..............",
"........_ [ I R I I I J J J P v X ........................................................F c r r t r r r r 0 r b ..............",
"........_ } R R R I I I K J I M X ........................................................F h t s s s r r r 0 0 n ..............",
"........_ } R R R R I I I P I M X ........................................................H h d d s s r r r r r n ..............",
"........_ } E E R R R I I P I v X ........................................................H c d s s s r r r r r m ..............",
"........_ } E W E R R R I I R v . ........................................................T n d d s s s s r r r B ..............",
"........_ } E W E E R R R I E v . ........................................................T v d d d s d s s r i A ..............",
"........_ } ! ! W E E R R I E l . ........................................................R M d g d d s s s s s A ..............",
"........_ | Q ! W W E E R R W M   ........................................................~ M d g d d s d s s s F ..............",
"........_ | ~ ~ W W E E E I W n q Y V ....................................................K M h g d d d d s s s G ..............",
"........_ | ~ ~ ~ W W W E E E K ` ] / ^ ^ W E U I P P H G S S B M M z c h h a d s s r r 0 d l h h g g g d d d d H ..............",
"........_  .~ ~ ! ~ ! W W W E E R I K I P J P H P H H G H G G G A F A A A A M A M M M n n l k l h h g d d d d d J ..............",
"........_ | ~ ~ ~ ~ ~ ! W W E E R R R I I I I J H L H H G G F F A A A A A M M n n n n b b l l l h h g g g d d d J ..............",
"........_  .) ) ~ ~ ! ! ! ! W E E R R R I I I P J J H H H G G G F A A A A M A n B n n n n l b l b l h g g g d d I ..............",
"........)  .) ) ) ~ ~ ~ ! ! W W E E R R R I I I K J J H H G G G F F F A A A A M B B n n n n b b l h b h g g g g I ..............",
"........)  .' ` / ) ~ ~ ! ! ! W W E E E R I I I I J J J H H H G G F F F A A A B B M n M n n b l b h h h h g g h R ..............",
"........)  .' ' ` ` / ) ~ ~ ~ ! ! E E E R R R I I I K J J J H H H G F A A A A A B B M M M n n n b b b b l h g h E ..............",
"........)  ._ ' ' ` / ) ~ ~ ~ ! W W W E E R R I I I K K K J J G H G G F F A A A B B B B B n n n b b l l l l h l E ..............",
"........)  .{ _ ' ` ` ` ` ~ ~ ~ ~ W W E E E E R I I I K K J H J H G H G G A A A A B B B n M n n n b b b l l g x W ..............",
"........)  .{ { { { ' ' ` ` ` ~ ~ ~ ! ! W W W E E R I I I I J K J H H H H G G A A A A A A M A M n M n n n b l z ) ..............",
"........)  ._ { ` / ~ ) ~ ! W E E R I I J J H H G D F A A M M n b b b l l l h h g d d t s d r r r 0 0 0 7 9 8 6 F ..............",
"................................................................................................................................",
"................................................................................................................................",
"................................................................................................................................",
"................................................................................................................................",
"................................................................................................................................",
"................................................................................................................................",
"................................................................................................................................",
"................................................................................................................................"
};
